<svg version="1.0" xmlns="http://www.w3.org/2000/svg" width="600" height="600" viewBox="0 0 450 450"
     preserveAspectRatio="xMidYMid meet">
    <g fill="#000" stroke="none">
        <path d="M217.2 38.5c-3.4.8-10.4 3.4-15.5 5.8-34.2 16.3-66.7 59.4-71.9 95.4-1.1 7.6-.9 11.1 2.6 43.1 2 19.1 4 35.5 4.2 36.5.8 2.6-4.7 4.5-16.3 5.7-21.1 2.2-27.2 3.7-30.4 7.6-.7.9-6.5 14.3-12.7 29.8-6.2 15.4-16.5 41.1-23 57.1l-11.7 29v10c.1 8.6.4 10.8 2.7 15.6 6 13 14.7 18.6 30.9 19.9 13.5 1.1 37.8-.4 39.8-2.5 1.3-1.3 1.1-7.2-1.7-52.6-3.5-56.6-3.6-55.5 2.9-57.8 3.5-1.2 213.4-1.4 217.8-.2 1.3.3 3.3 1.8 4.3 3.2 2 2.6 1.9 3.1-1.3 54.8-2.3 37.4-2.9 52.5-2.1 53.3.5.5 6.8 1.4 13.9 1.9 16.1 1.2 33.6-.2 39-3 6.8-3.5 12.1-8.9 15.5-15.9 3.1-6.2 3.3-7.3 3.2-16.7v-10l-13.3-33c-7.3-18.2-17.8-44.3-23.3-58-7-17.5-10.9-25.9-13-28.1-5.8-6.1-20.7-11.8-34-13.1-4.6-.4-6.8-1-6.8-1.9 0-1.2 3.2-16.7 8.6-41.4 3.8-17.3 4.1-24.7 1.4-35.5-6.6-26.9-22.2-53.8-42.7-73.7-22.5-21.9-44.5-30.2-67.1-25.3zm22.4 71.6c20.6 2.1 36.3 7.4 44.9 15.1l4.9 4.4-.1 9.5c0 21.5-11.6 41.8-31 54.2L251 198v23.4c0 27.3 1.6 24.4-13.6 25.5-9.1.6-20.4.1-29.2-1.4l-4.2-.7-.2-23-.3-23.1-6.5-3.9c-20.1-12.1-32.9-35-33-58.9 0-7.5.1-7.8 3.4-10.7 9.6-8.4 34.4-15.4 56.7-16.1 2.5 0 9.5.4 15.5 1z"/>
        <path d="M125.4 295.4c-.5 1.2 4.3 82.4 6.4 108.1l.7 9 92.9.3c51.2.1 93.3-.1 93.8-.6 1-1 8.2-114.7 7.4-116.7-.5-1.3-12.9-1.5-100.6-1.5-85.1 0-100.1.2-100.6 1.4zm106.9 47c3.8 1.6 9.7 7.9 9.7 10.5 0 5.2-9.7 13.1-16 13.1-5.9 0-16-7.9-16-12.5 0-2.4 4.7-8 8.5-10.2 4.6-2.6 9.1-2.9 13.8-.9z"/>
    </g>
</svg>
